# xmcd
#
# Track frame offsets: 
#        150
#        22212
#        39170
#        53740
#        73930
#        91240
#        111465
#        127862
#        145050
#        164387
#        187617
#
# Disc length: 2764 seconds
#
# Revision: 2
# Processed by: cddbd v1.4PL0 Copyright (c) Steve Scherf et al.
# Submitted via: ExactAudioCopy v0.90b3
#
DISCID=8f0aca0b
DTITLE=Eric Carmen - The Best Of Eric Carmen
DYEAR=1900
DGENRE=Blues
TTITLE0=All By Myself
TTITLE1=Never Gonna Fall In Love Again
TTITLE2=That's Rock 'N' Roll
TTITLE3=Hey Deanie
TTITLE4=Hungry Eyes
TTITLE5=Make Me Lose Control
TTITLE6=Change Of Heart
TTITLE7=She Did It
TTITLE8=It Hurts Too Much
TTITLE9=No Hard Feelings
TTITLE10=Boats Against The Current
EXTD=
EXTT0=
EXTT1=
EXTT2=
EXTT3=
EXTT4=
EXTT5=
EXTT6=
EXTT7=
EXTT8=
EXTT9=
EXTT10=
PLAYORDER=
